HIERARCHY
ROOT Junyuan_V1:Solving:Hips
{
	OFFSET 0.000000 0.000000 0.000000
	CHANNELS 6 Xposition Yposition Zposition Xrotation Yrotation Zrotation
	JOINT Junyuan_V1:Solving:Spine
	{
		OFFSET 0.000000 -11.180205 2.228564
		CHANNELS 6 Xposition Yposition Zposition Xrotation Yrotation Zrotation
		JOINT Junyuan_V1:Solving:Spine1
		{
			OFFSET 0.000000 -8.682996 1.531049
			CHANNELS 6 Xposition Yposition Zposition Xrotation Yrotation Zrotation
			JOINT Junyuan_V1:Solving:Spine2
			{
				OFFSET 0.000000 -8.783394 0.768450
				CHANNELS 6 Xposition Yposition Zposition Xrotation Yrotation Zrotation
				JOINT Junyuan_V1:Solving:Spine3
				{
					OFFSET 0.000000 -8.816944 0.000000
					CHANNELS 6 Xposition Yposition Zposition Xrotation Yrotation Zrotation
					JOINT Junyuan_V1:Solving:Neck
					{
						OFFSET 0.000000 -11.336071 -1.133605
						CHANNELS 6 Xposition Yposition Zposition Xrotation Yrotation Zrotation
						JOINT Junyuan_V1:Solving:Neck1
						{
							OFFSET 0.000000 -7.643246 -0.668695
							CHANNELS 6 Xposition Yposition Zposition Xrotation Yrotation Zrotation
							JOINT Junyuan_V1:Solving:Head
							{
								OFFSET 0.000000 -7.555870 -1.332303
								CHANNELS 6 Xposition Yposition Zposition Xrotation Yrotation Zrotation
								JOINT Junyuan_V1:Solving:HeadEnd
								{
									OFFSET 0.000000 -9.728081 0.000002
									CHANNELS 6 Xposition Yposition Zposition Xrotation Yrotation Zrotation
									End Site
									{
										OFFSET 0.000000 -9.728081 0.000002
									}
								}
							}
						}
					}
					JOINT Junyuan_V1:Solving:RightShoulder
					{
						OFFSET 0.000000 -8.097195 -5.270916
						CHANNELS 6 Xposition Yposition Zposition Xrotation Yrotation Zrotation
						JOINT Junyuan_V1:Solving:RightArm
						{
							OFFSET -20.762394 -0.000008 0.000000
							CHANNELS 6 Xposition Yposition Zposition Xrotation Yrotation Zrotation
							JOINT Junyuan_V1:Solving:RightForeArm
							{
								OFFSET -29.048946 -0.000008 0.000000
								CHANNELS 6 Xposition Yposition Zposition Xrotation Yrotation Zrotation
								JOINT Junyuan_V1:Solving:RightHand
								{
									OFFSET -22.031235 -0.000008 0.000000
									CHANNELS 6 Xposition Yposition Zposition Xrotation Yrotation Zrotation
									JOINT Junyuan_V1:Solving:RightHandThumb1
									{
										OFFSET -3.579254 2.890213 -2.661497
										CHANNELS 6 Xposition Yposition Zposition Xrotation Yrotation Zrotation
										End Site
										{
											OFFSET -5.229485 0.000000 -5.277840
										}
									}
									JOINT Junyuan_V1:Solving:RightHandMiddle1
									{
										OFFSET -9.544678 -0.000004 0.061184
										CHANNELS 6 Xposition Yposition Zposition Xrotation Yrotation Zrotation
										End Site
										{
											OFFSET -7.429878 -0.000004 0.000000
										}
									}
								}
							}
						}
					}
					JOINT Junyuan_V1:Solving:LeftShoulder
					{
						OFFSET 0.000000 -8.097195 -5.270916
						CHANNELS 6 Xposition Yposition Zposition Xrotation Yrotation Zrotation
						JOINT Junyuan_V1:Solving:LeftArm
						{
							OFFSET 20.762394 -0.000008 0.000000
							CHANNELS 6 Xposition Yposition Zposition Xrotation Yrotation Zrotation
							JOINT Junyuan_V1:Solving:LeftForeArm
							{
								OFFSET 29.048946 -0.000008 0.000000
								CHANNELS 6 Xposition Yposition Zposition Xrotation Yrotation Zrotation
								JOINT Junyuan_V1:Solving:LeftHand
								{
									OFFSET 22.031235 -0.000008 0.000000
									CHANNELS 6 Xposition Yposition Zposition Xrotation Yrotation Zrotation
									JOINT Junyuan_V1:Solving:LeftHandThumb1
									{
										OFFSET 3.579254 2.890213 -2.661497
										CHANNELS 6 Xposition Yposition Zposition Xrotation Yrotation Zrotation
										End Site
										{
											OFFSET 5.229485 0.000000 -5.277840
										}
									}
									JOINT Junyuan_V1:Solving:LeftHandMiddle1
									{
										OFFSET 9.544678 -0.000004 0.061184
										CHANNELS 6 Xposition Yposition Zposition Xrotation Yrotation Zrotation
										End Site
										{
											OFFSET 7.429878 -0.000004 0.000000
										}
									}
								}
							}
						}
					}
				}
			}
		}
	}
	JOINT Junyuan_V1:Solving:RightUpLeg
	{
		OFFSET -10.825166 0.000000 0.000000
		CHANNELS 6 Xposition Yposition Zposition Xrotation Yrotation Zrotation
		JOINT Junyuan_V1:Solving:RightLeg
		{
			OFFSET 0.000000 43.678444 -0.000006
			CHANNELS 6 Xposition Yposition Zposition Xrotation Yrotation Zrotation
			JOINT Junyuan_V1:Solving:RightFoot
			{
				OFFSET 0.000000 36.488441 -0.000006
				CHANNELS 6 Xposition Yposition Zposition Xrotation Yrotation Zrotation
				JOINT Junyuan_V1:Solving:RightForeFoot
				{
					OFFSET 0.000000 3.967834 -0.000000
					CHANNELS 6 Xposition Yposition Zposition Xrotation Yrotation Zrotation
					JOINT Junyuan_V1:Solving:RightToeBase
					{
						OFFSET 0.000000 0.000000 -15.539299
						CHANNELS 6 Xposition Yposition Zposition Xrotation Yrotation Zrotation
						JOINT Junyuan_V1:Solving:RightToeBaseEnd
						{
							OFFSET 0.000000 0.000000 -3.486985
							CHANNELS 6 Xposition Yposition Zposition Xrotation Yrotation Zrotation
							End Site
							{
								OFFSET 0.000000 -3.486992 0.000000
							}
						}
					}
				}
			}
		}
	}
	JOINT Junyuan_V1:Solving:LeftUpLeg
	{
		OFFSET 10.825166 0.000000 0.000000
		CHANNELS 6 Xposition Yposition Zposition Xrotation Yrotation Zrotation
		JOINT Junyuan_V1:Solving:LeftLeg
		{
			OFFSET 0.000000 43.678444 -0.000006
			CHANNELS 6 Xposition Yposition Zposition Xrotation Yrotation Zrotation
			JOINT Junyuan_V1:Solving:LeftFoot
			{
				OFFSET 0.000000 36.488441 -0.000006
				CHANNELS 6 Xposition Yposition Zposition Xrotation Yrotation Zrotation
				JOINT Junyuan_V1:Solving:LeftForeFoot
				{
					OFFSET 0.000000 3.967834 -0.000000
					CHANNELS 6 Xposition Yposition Zposition Xrotation Yrotation Zrotation
					JOINT Junyuan_V1:Solving:LeftToeBase
					{
						OFFSET 0.000000 0.000000 -15.539299
						CHANNELS 6 Xposition Yposition Zposition Xrotation Yrotation Zrotation
						JOINT Junyuan_V1:Solving:LeftToeBaseEnd
						{
							OFFSET 0.000000 0.000000 -3.974441
							CHANNELS 6 Xposition Yposition Zposition Xrotation Yrotation Zrotation
							End Site
							{
								OFFSET 0.000000 -3.974442 0.000000
							}
						}
					}
				}
			}
		}
	}
}
MOTION
Frames: 5
Frame Time: 0.041667
5.385398 -5.968671 -80.252571 60.315673 -176.052880 2.791386 -0.000001 -11.180185 2.228564 11.585344 0.506976 1.302126 0.000003 -8.682983 1.531039 14.390628 -0.012919 0.757588 -0.000000 -8.783375 0.768458 27.424514 -3.534957 1.541938 0.000001 -8.816945 0.000005 -7.942083 -0.295643 -2.807831 -0.000000 -11.336073 -1.133626 -38.167978 -11.022066 9.026418 0.000005 -7.643243 -0.668688 20.289437 5.122500 -9.775504 0.000000 -7.555868 -1.332283 -1.086364 -0.193720 1.197067 -0.000001 -9.728081 0.000010 -0.000005 -0.000000 0.000000 -0.000003 -8.097198 -5.270911 0.000004 4.400112 22.151743 -20.762384 -0.000007 -0.000005 -75.827865 -19.519952 -95.586995 -29.048922 -0.000004 -0.000008 -42.901675 -12.858332 -11.684600 -22.031233 -0.000016 -0.000003 4.558004 -10.382237 23.863002 -3.579247 2.890204 -2.661510 0.000001 -0.000015 -0.000002 -9.544704 -0.000013 0.061181 0.000002 -0.000006 -0.000005 0.000001 -8.097202 -5.270905 -0.000004 -7.856767 -16.714788 20.762396 -0.000017 0.000019 -85.952050 34.128379 96.568623 29.048954 -0.000010 -0.000001 -52.091951 7.055235 8.963477 22.031225 -0.000011 -0.000007 4.528412 8.297265 -28.759331 3.579260 2.890214 -2.661480 0.000003 0.000000 -0.000002 9.544687 0.000001 0.061201 -0.000000 -0.000001 0.000002 -10.825172 0.000000 0.000001 -69.651708 31.490939 15.105286 -0.000006 43.678436 0.000012 53.266091 0.000000 0.000003 0.000004 36.488415 -0.000001 -7.324412 -2.399375 -9.466987 0.000003 3.967827 -0.000005 0.000002 -0.000002 -0.000002 -0.000002 -0.000003 -15.539304 6.187491 0.000001 0.000000 -0.000004 0.000001 -3.486972 0.000002 0.000001 -0.000001 10.825164 0.000007 0.000002 -70.057045 -19.524958 -20.046452 -0.000000 43.678448 0.000001 48.055521 -0.000001 0.000000 0.000001 36.488415 0.000001 -4.623146 0.912555 1.748286 -0.000000 3.967827 0.000001 -0.000000 0.000002 -0.000001 0.000002 -0.000016 -15.539295 -0.745798 -0.000000 -0.000000 -0.000004 -0.000008 -3.974446 -0.000000 0.000001 -0.000000 
5.456674 -6.051507 -80.379631 60.311636 -176.221066 2.773328 -0.000001 -11.180196 2.228568 11.605952 0.518226 1.303472 -0.000001 -8.683005 1.531048 14.318298 -0.009054 0.726591 0.000000 -8.783399 0.768463 27.329470 -3.491077 1.688474 0.000002 -8.816936 0.000012 -7.842001 -0.270613 -2.722932 -0.000002 -11.336063 -1.133621 -38.072198 -11.052595 9.121008 0.000000 -7.643261 -0.668705 19.990613 5.286539 -10.068489 -0.000001 -7.555858 -1.332312 -0.908880 -0.184336 1.177976 0.000000 -9.728081 -0.000008 -0.000006 0.000000 0.000000 -0.000001 -8.097187 -5.270941 0.000006 4.523746 22.070325 -20.762388 -0.000001 -0.000002 -75.647152 -19.386023 -95.774210 -29.048943 -0.000022 0.000005 -43.059866 -12.945016 -11.823325 -22.031237 -0.000027 0.000009 4.554499 -10.417551 23.775544 -3.579267 2.890205 -2.661482 0.000001 -0.000007 0.000003 -9.544694 -0.000008 0.061193 -0.000000 -0.000001 -0.000002 -0.000002 -8.097195 -5.270935 0.000002 -7.994904 -16.965707 20.762398 -0.000005 -0.000002 -85.997396 33.594067 96.838982 29.048933 -0.000018 -0.000009 -51.647985 7.306382 9.131111 22.031239 -0.000010 0.000001 4.450763 8.254494 -28.464617 3.579237 2.890210 -2.661494 0.000004 -0.000002 -0.000002 9.544684 -0.000010 0.061182 0.000003 -0.000006 -0.000001 -10.825164 0.000006 0.000000 -70.543416 32.326537 16.336102 -0.000004 43.678436 0.000013 53.884394 0.000008 0.000003 0.000003 36.488434 -0.000007 -6.451453 -3.139229 -10.476111 -0.000000 3.967827 0.000003 -0.000002 0.000000 -0.000002 -0.000002 -0.000002 -15.539295 6.381554 0.000002 0.000000 0.000003 0.000008 -3.486987 0.000002 0.000002 0.000001 10.825165 0.000004 0.000007 -69.794541 -19.646696 -19.928381 0.000000 43.678436 0.000005 47.621404 0.000004 0.000002 -0.000001 36.488441 -0.000005 -4.414248 1.017253 1.797652 0.000001 3.967834 0.000004 -0.000001 0.000001 0.000000 0.000005 0.000002 -15.539300 -1.039088 -0.000002 0.000001 -0.000002 -0.000008 -3.974442 -0.000001 -0.000004 0.000000 
5.534628 -6.121322 -80.529892 60.295988 -176.379062 2.807054 0.000000 -11.180222 2.228553 11.594839 0.510704 1.309138 -0.000002 -8.683010 1.531065 14.187680 -0.014561 0.736334 -0.000001 -8.783397 0.768472 27.329120 -3.520506 1.666571 0.000001 -8.816944 0.000002 -7.691085 -0.297225 -2.718185 -0.000002 -11.336064 -1.133631 -37.915456 -10.940769 9.174664 -0.000000 -7.643262 -0.668696 19.547433 5.344871 -10.006988 -0.000000 -7.555869 -1.332292 -0.772255 -0.168411 1.139013 0.000000 -9.728088 0.000001 -0.000006 0.000000 -0.000000 -0.000001 -8.097191 -5.270941 0.000007 4.700001 22.255476 -20.762394 -0.000010 -0.000014 -75.525001 -19.088956 -95.952369 -29.048941 -0.000015 -0.000010 -43.112157 -13.048264 -11.934547 -22.031250 -0.000017 -0.000007 4.511919 -10.399331 23.613176 -3.579261 2.890209 -2.661495 0.000001 -0.000002 0.000001 -9.544685 -0.000010 0.061190 -0.000001 0.000005 0.000000 0.000000 -8.097202 -5.270943 0.000000 -8.049997 -17.154010 20.762388 -0.000021 0.000009 -85.976024 32.875620 97.066257 29.048948 -0.000007 0.000004 -51.466831 7.600197 9.429362 22.031240 -0.000010 -0.000006 4.368957 8.296017 -27.901572 3.579260 2.890209 -2.661500 0.000002 0.000002 -0.000002 9.544695 -0.000007 0.061184 0.000002 -0.000004 0.000002 -10.825163 -0.000013 -0.000010 -71.307708 33.005871 17.431584 0.000003 43.678448 0.000016 54.366458 0.000002 0.000004 0.000007 36.488426 -0.000005 -5.652685 -3.792369 -11.488739 0.000000 3.967819 0.000004 -0.000000 -0.000001 0.000000 0.000001 -0.000011 -15.539294 6.653191 0.000000 0.000001 -0.000001 -0.000015 -3.486991 0.000001 0.000002 -0.000000 10.825166 -0.000025 -0.000008 -69.521429 -19.713770 -19.822780 -0.000002 43.678452 0.000005 47.108744 -0.000002 0.000001 -0.000000 36.488415 0.000004 -4.103910 1.086234 1.858490 -0.000000 3.967827 -0.000001 -0.000000 0.000003 0.000000 -0.000001 0.000009 -15.539304 -1.346060 0.000001 -0.000000 0.000006 -0.000008 -3.974435 0.000000 -0.000004 0.000000 
5.639408 -6.188446 -80.701759 60.293413 -176.522851 2.890556 -0.000000 -11.180220 2.228557 11.769477 0.512883 1.271366 -0.000001 -8.682981 1.531047 14.272121 -0.002603 0.717313 -0.000002 -8.783405 0.768448 26.821997 -3.561166 1.674424 0.000002 -8.816947 0.000005 -7.742970 -0.290700 -2.685416 0.000000 -11.336069 -1.133620 -37.990359 -11.085258 9.282116 0.000001 -7.643229 -0.668700 20.060511 5.439072 -10.344432 0.000000 -7.555879 -1.332281 -0.906893 -0.185610 1.205772 -0.000000 -9.728073 0.000001 -0.000005 0.000000 0.000000 0.000001 -8.097195 -5.270914 0.000007 4.739879 22.276425 -20.762396 -0.000015 0.000004 -75.105935 -18.945613 -96.191685 -29.048948 -0.000005 -0.000001 -42.924174 -13.165258 -11.959977 -22.031237 -0.000019 -0.000004 4.426789 -10.288112 23.435156 -3.579263 2.890222 -2.661493 0.000010 0.000009 -0.000001 -9.544695 0.000003 0.061193 0.000004 0.000005 -0.000003 0.000000 -8.097202 -5.270915 0.000006 -8.036173 -17.173759 20.762396 -0.000015 0.000024 -85.612849 32.488635 97.291496 29.048941 -0.000011 -0.000001 -51.417985 7.939183 9.822444 22.031227 -0.000016 0.000000 4.249597 8.167439 -27.611279 3.579263 2.890208 -2.661497 0.000004 0.000000 0.000002 9.544685 -0.000010 0.061188 0.000004 0.000001 -0.000000 -10.825165 -0.000031 -0.000002 -71.843338 33.561562 18.345680 0.000001 43.678448 -0.000010 54.684926 0.000003 0.000001 0.000004 36.488453 -0.000002 -4.986784 -4.172639 -12.998734 0.000003 3.967827 -0.000002 0.000001 -0.000006 0.000002 0.000005 0.000011 -15.539297 6.739913 0.000001 0.000003 -0.000000 -0.000007 -3.486981 0.000003 0.000003 0.000000 10.825164 -0.000017 -0.000004 -69.220730 -19.714667 -19.755123 -0.000003 43.678463 -0.000004 46.560378 0.000003 -0.000000 -0.000003 36.488415 0.000000 -3.783945 1.139687 1.989788 -0.000001 3.967834 -0.000003 -0.000001 0.000004 -0.000001 -0.000001 -0.000017 -15.539299 -1.569756 -0.000002 -0.000001 0.000001 -0.000008 -3.974440 -0.000000 -0.000000 -0.000000 
5.745264 -6.266433 -80.867966 60.313610 -176.708578 2.934343 -0.000003 -11.180215 2.228566 11.850674 0.551650 1.262534 0.000000 -8.683032 1.531044 14.308494 0.002428 0.687120 0.000001 -8.783386 0.768455 26.479817 -3.577438 1.676471 0.000002 -8.816942 0.000001 -7.660517 -0.287209 -2.601455 -0.000001 -11.336072 -1.133596 -38.071536 -10.986602 9.117764 0.000001 -7.643239 -0.668682 20.212627 5.442443 -10.284889 -0.000000 -7.555902 -1.332280 -0.865825 -0.179095 1.196678 -0.000001 -9.728104 0.000000 -0.000010 0.000000 -0.000000 0.000001 -8.097187 -5.270901 0.000005 4.801414 22.297134 -20.762398 -0.000012 0.000003 -74.844489 -18.833564 -96.407929 -29.048948 -0.000017 -0.000011 -42.905520 -13.212589 -11.993394 -22.031231 -0.000010 -0.000011 4.450231 -10.399136 23.324249 -3.579268 2.890206 -2.661506 0.000005 0.000002 0.000002 -9.544686 -0.000018 0.061173 0.000001 0.000004 -0.000001 -0.000001 -8.097195 -5.270903 0.000001 -8.149332 -17.336557 20.762386 -0.000016 -0.000005 -85.440762 32.054532 97.570543 29.048952 -0.000006 0.000008 -50.985778 8.274721 10.072682 22.031202 -0.000013 -0.000012 4.158793 8.149557 -27.155022 3.579289 2.890212 -2.661492 0.000001 -0.000007 -0.000005 9.544703 -0.000004 0.061186 0.000001 -0.000010 0.000003 -10.825168 0.000002 -0.000001 -72.366455 33.967525 19.303136 0.000008 43.678448 0.000008 55.048900 -0.000004 0.000004 -0.000000 36.488430 0.000000 -4.373607 -4.395054 -14.813688 0.000003 3.967819 -0.000003 0.000001 -0.000002 -0.000003 0.000002 -0.000005 -15.539289 6.489453 -0.000003 -0.000001 -0.000004 -0.000007 -3.486987 0.000001 -0.000000 -0.000005 10.825166 0.000008 0.000000 -68.863456 -19.706393 -19.617582 -0.000000 43.678455 0.000002 46.005989 0.000004 -0.000002 -0.000000 36.488415 0.000001 -3.462789 1.215413 2.064395 -0.000001 3.967827 0.000004 0.000000 0.000004 0.000000 0.000002 -0.000004 -15.539300 -1.810303 -0.000001 -0.000000 -0.000005 -0.000008 -3.974437 -0.000001 -0.000003 -0.000000 
